<svg width="37" height="31" viewBox="0 0 37 31" fill="none" xmlns="http://www.w3.org/2000/svg">
<path d="M24.1867 29.26C29.0867 23.8 31.4667 18.62 31.1867 13.86C30.0667 14.14 29.2267 14.28 28.6667 14.28C26.7067 14.28 25.1667 13.72 23.9067 12.32C22.6467 11.06 22.0867 9.38 22.0867 7.42C22.0867 5.46 22.6467 3.91999 24.0467 2.51999C25.4467 1.11999 26.9867 0.419995 28.9467 0.419995C31.3267 0.419995 33.1467 1.25999 34.5467 2.94C35.8067 4.62 36.5067 6.99999 36.5067 9.94C36.5067 14 35.5267 17.78 33.5667 21.28C31.6067 24.78 28.9467 27.72 25.3067 30.24L24.1867 29.26ZM2.76672 29.26C7.52672 23.8 9.90672 18.62 9.76672 13.86C9.06672 14.14 8.50672 14.28 8.22672 14.28C7.94672 14.28 7.52672 14.28 7.24672 14.28C5.28672 14.28 3.74672 13.72 2.48672 12.32C1.22672 11.06 0.666719 9.38 0.666719 7.42C0.666719 5.46 1.22672 3.91999 2.62672 2.51999C4.02672 1.11999 5.56672 0.419995 7.52672 0.419995C9.90672 0.419995 11.7267 1.25999 13.1267 2.94C14.3867 4.62 15.0867 6.99999 15.0867 9.94C15.0867 14 14.1067 17.78 12.1467 21.28C10.1867 24.78 7.38672 27.72 3.88672 30.24L2.76672 29.26Z" fill="#25313C"/>
</svg>
